<svg width="150" height="75" viewBox="0 0 150 75" fill="none" xmlns="http://www.w3.org/2000/svg">
<path fill-rule="evenodd" clip-rule="evenodd" d="M8.93359 19.6765L33.9141 6.54688L59.5672 19.6765L33.9141 32.6566L8.93359 19.6765ZM33.9141 11.474L19.0706 19.0263L33.9141 26.9924L49.5852 19.1297L33.9141 11.474Z" fill="#7F8083"/>
<path fill-rule="evenodd" clip-rule="evenodd" d="M6.4502 22.0802V53.8715C6.4502 53.8715 13.2823 57.4318 16.4838 59.0377C19.6853 60.6436 22.2764 59.2895 22.2764 52.5717C22.2764 46.3204 18.4494 43.1057 18.4494 43.1057C18.4494 43.1057 21.2731 42.6935 21.0871 37.1569C20.9007 31.6175 18.687 28.452 15.6821 26.8889L6.4502 22.0802ZM10.6759 30.484V36.4843C10.6759 36.4843 13.089 37.9766 14.0013 38.4243C14.9135 38.872 16.1146 39.0629 16.0183 36.1482C15.922 33.2335 14.3302 32.5969 14.0788 32.4497C13.8273 32.3025 10.6759 30.484 10.6759 30.484V30.484ZM10.6759 43.597V50.0372C10.6759 50.0372 13.6321 51.7621 14.5443 52.2097C15.4565 52.6574 16.8387 53.159 16.9493 50.3477C17.0599 47.5364 15.4423 46.2531 14.8546 45.9507C14.2669 45.6483 10.6759 43.5971 10.6759 43.5971V43.597Z" fill="#6F7B3D"/>
<path fill-rule="evenodd" clip-rule="evenodd" d="M24.7334 31.5917V63.3827L28.9486 65.5542V41.6977L32.1034 67.2082L33.8358 68.1161L35.7236 67.1563L38.8268 41.6977V65.5542L43.0419 63.4347V31.6692L36.1404 35.1624L33.8358 54.7702L31.6864 35.2141L24.7334 31.5917Z" fill="#A76C32"/>
<path fill-rule="evenodd" clip-rule="evenodd" d="M61.3767 22.3905C61.3767 22.3905 53.4979 26.3441 50.9085 27.6906C47.9609 29.2231 46.5332 31.7985 46.5332 36.0188V61.6502L51.2705 59.2707V52.9857L57.1636 49.7527V56.2702L61.3767 54.1237V22.3907V22.3905ZM57.1636 30.4064C57.1636 30.4064 55.0219 31.4042 53.6447 32.191C52.2674 32.9778 51.2705 35.1933 51.2705 36.8724V47.0111L57.1636 43.8816V30.4064V30.4064Z" fill="#586B7E"/>
<path fill-rule="evenodd" clip-rule="evenodd" d="M69.2959 32.5754C69.3754 33.4447 69.6892 34.0777 70.2375 34.4743C70.7858 34.8709 71.5031 35.0693 72.3893 35.0695C73.2958 35.0695 73.9784 34.8688 74.4371 34.4672C74.8949 34.0658 75.1241 33.5627 75.1246 32.958C75.1246 32.6086 75.0448 32.311 74.8853 32.0653C74.7232 31.8171 74.5025 31.6127 74.2427 31.4701C73.964 31.3152 73.668 31.1939 73.3608 31.1088C73.0421 31.0191 72.6335 30.9175 72.1351 30.8041C71.5474 30.6719 71.0692 30.5491 70.7006 30.4356C70.3341 30.3232 69.9828 30.1662 69.6546 29.968C69.3249 29.7689 69.052 29.4883 68.8622 29.1532C68.6629 28.8084 68.5633 28.3856 68.5633 27.8849C68.5633 27.1292 68.8847 26.4844 69.5275 25.9506C70.1703 25.4167 71.0645 25.1498 72.2102 25.1499C73.3656 25.1499 74.2573 25.438 74.8853 26.0143C75.5134 26.5905 75.8272 27.318 75.8269 28.1966H74.8555C74.8555 27.4597 74.6013 26.9047 74.0929 26.5315C73.5846 26.1584 72.957 25.9718 72.2102 25.9718C71.3332 25.9718 70.6704 26.1631 70.2221 26.5457C69.7738 26.9283 69.5496 27.3888 69.5496 27.9273C69.5502 28.0272 69.5602 28.1268 69.5795 28.2249C69.6202 28.4888 69.7371 28.7351 69.916 28.9334C70.1014 29.1307 70.3219 29.2917 70.5663 29.4081C70.8292 29.5372 71.1045 29.6393 71.388 29.7128C71.6769 29.7885 72.0506 29.8736 72.5092 29.968C73.1167 30.0908 73.6048 30.2066 73.9736 30.3151C74.3457 30.4253 74.7022 30.5825 75.0345 30.7828C75.3714 30.9839 75.6497 31.2697 75.8418 31.6118C76.0411 31.9614 76.1408 32.396 76.1408 32.9155C76.1408 33.8508 75.7945 34.5806 75.1019 35.1049C74.4094 35.6293 73.4455 35.8914 72.2102 35.8914C71.0443 35.8914 70.1027 35.6056 69.3855 35.0341C68.6682 34.4625 68.3096 33.643 68.3096 32.5754H69.2959ZM77.3957 28.4233C77.602 27.7943 77.9296 27.2117 78.36 26.7087C78.7899 26.2127 79.3263 25.8203 79.9293 25.5608C80.5517 25.2869 81.2516 25.1499 82.0291 25.1499C82.846 25.1499 83.5734 25.2869 84.2112 25.5608C84.8242 25.8175 85.371 26.21 85.8104 26.7087C86.2439 27.2095 86.5717 27.7927 86.7741 28.4233C86.9931 29.1055 87.1016 29.8183 87.0957 30.5348C87.1013 31.2443 86.9928 31.9501 86.7741 32.625C86.5714 33.2519 86.2463 33.8323 85.8176 34.3326C85.3841 34.8312 84.8422 35.2238 84.2334 35.4804C83.6008 35.7543 82.881 35.8913 82.0738 35.8914C81.2667 35.8914 80.5469 35.7545 79.9143 35.4804C79.3069 35.2251 78.7671 34.8321 78.3373 34.3326C77.9129 33.8306 77.5906 33.2505 77.3885 32.625C76.9573 31.2572 76.9598 29.7895 77.3957 28.4232V28.4233ZM83.8675 34.7079C84.3581 34.4807 84.7881 34.1409 85.1225 33.716C85.4561 33.2861 85.7024 32.795 85.8474 32.2705C86.0049 31.7054 86.0828 31.1212 86.079 30.5346C86.079 29.1175 85.7204 28.0028 85.0031 27.1903C84.2858 26.3779 83.3044 25.9716 82.0589 25.9716C81.3912 25.9716 80.8059 26.0944 80.3028 26.34C79.8144 26.5739 79.3872 26.9184 79.0551 27.3461C78.7217 27.78 78.4732 28.2727 78.3224 28.7986C78.004 29.934 78.004 31.1351 78.3224 32.2705C78.4731 32.7964 78.7217 33.2892 79.0551 33.723C79.3868 34.1505 79.8175 34.491 80.3101 34.715C80.8184 34.9512 81.4113 35.0693 82.0888 35.0693C82.7662 35.0692 83.3591 34.9488 83.8675 34.7079ZM88.5899 35.6219V25.4191H89.6061V34.8001H95.375V35.622H88.5899V35.6219ZM96.3912 25.419H97.4074V31.4983C97.4074 32.7549 97.6566 33.6642 98.155 34.2262C98.6528 34.7884 99.4548 35.0695 100.561 35.0694C101.697 35.0694 102.507 34.7813 102.99 34.205C103.473 33.6287 103.714 32.7265 103.715 31.4983V25.4191H104.731V31.7817C104.731 33.1138 104.38 34.1318 103.677 34.8356C102.975 35.5393 101.936 35.8912 100.561 35.8913C99.1761 35.8913 98.135 35.537 97.4378 34.8285C96.7406 34.1199 96.3917 33.1044 96.3912 31.7817V25.4191V25.419ZM114.281 28.3806C114.081 27.5304 113.703 26.9163 113.145 26.5384C112.587 26.1607 111.834 25.9718 110.888 25.9716C110.26 25.9716 109.71 26.0897 109.237 26.3259C108.772 26.5549 108.369 26.8928 108.063 27.3108C107.748 27.7454 107.517 28.2358 107.383 28.7562C107.236 29.3229 107.163 29.9065 107.167 30.4921C107.164 31.0717 107.229 31.6495 107.361 32.2139C107.481 32.7353 107.696 33.2302 107.996 33.6735C108.296 34.1088 108.703 34.46 109.177 34.6938C109.67 34.9441 110.27 35.0693 110.978 35.0693C111.875 35.0693 112.614 34.8141 113.197 34.3039C113.78 33.7936 114.176 33.1134 114.385 32.2633H115.446C115.335 32.7509 115.162 33.2223 114.931 33.6662C114.706 34.0913 114.408 34.4728 114.049 34.7926C113.663 35.132 113.217 35.3963 112.734 35.572C112.221 35.7655 111.63 35.8671 110.963 35.8767L110.469 36.4577C110.645 36.4105 110.826 36.3819 111.008 36.3727C111.316 36.3727 111.578 36.4482 111.792 36.5994C112.007 36.7506 112.129 36.9206 112.159 37.1097C112.178 37.1982 112.188 37.2884 112.188 37.3789C112.188 37.7662 112.027 38.0591 111.703 38.2575C111.379 38.4559 110.983 38.5551 110.515 38.5551C110.106 38.5551 109.652 38.4653 109.154 38.2858L109.379 37.8607C109.408 37.87 109.443 37.8795 109.483 37.889C109.862 38.0117 110.146 38.0731 110.335 38.0733C110.573 38.0761 110.807 38.0175 111.015 37.9032C111.219 37.7899 111.321 37.6246 111.321 37.4074C111.325 37.3259 111.307 37.2448 111.269 37.1726C111.231 37.1004 111.174 37.0396 111.105 36.9964C110.946 36.8979 110.761 36.8486 110.574 36.8547C110.367 36.865 110.161 36.8983 109.962 36.9539L109.917 36.9681L109.692 36.7839L110.395 35.8769C109.657 35.8296 109.017 35.6595 108.475 35.3667C107.947 35.0877 107.493 34.6869 107.152 34.1976C106.804 33.6913 106.548 33.1276 106.397 32.5325C106.228 31.8751 106.146 31.1988 106.15 30.5203C106.15 29.5757 106.275 28.7585 106.524 28.0687C106.773 27.3789 107.122 26.8192 107.57 26.3894C108.018 25.9601 108.557 25.6379 109.147 25.4471C109.75 25.2487 110.42 25.1495 111.157 25.1495C112.283 25.1495 113.217 25.4282 113.959 25.9856C114.701 26.5431 115.157 27.3414 115.327 28.3804H114.281V28.3806ZM119.272 24.4553C119.304 24.1569 119.406 23.8703 119.571 23.6192C119.696 23.4531 119.857 23.3174 120.042 23.2224C120.219 23.1297 120.417 23.0811 120.617 23.0807C120.707 23.0808 120.798 23.0903 120.886 23.1091C121.045 23.1374 121.32 23.2366 121.708 23.4067C121.948 23.5107 122.144 23.5887 122.298 23.6405C122.435 23.6893 122.579 23.7156 122.725 23.7184C122.924 23.7184 123.071 23.6523 123.165 23.52C123.27 23.3653 123.343 23.1921 123.382 23.0098H123.95C123.931 23.1582 123.901 23.3051 123.86 23.449L123.83 23.5482C123.726 23.783 123.573 23.993 123.382 24.1647C123.2 24.3217 122.965 24.405 122.725 24.3985C122.542 24.3995 122.36 24.3708 122.186 24.3135C122.017 24.2568 121.798 24.1717 121.529 24.0583C121.09 23.8599 120.761 23.7607 120.542 23.7607C120.343 23.7607 120.191 23.8221 120.087 23.945C119.965 24.0977 119.872 24.2704 119.81 24.4552H119.272V24.4553ZM116.821 28.4231C117.027 27.7941 117.355 27.2116 117.785 26.7085C118.215 26.2126 118.751 25.8202 119.354 25.5606C119.977 25.2867 120.677 25.1498 121.454 25.1497C122.271 25.1497 122.998 25.2867 123.636 25.5606C124.249 25.8172 124.796 26.2097 125.235 26.7085C125.669 27.2093 125.997 27.7925 126.199 28.4231C126.418 29.1053 126.527 29.8182 126.521 30.5346C126.526 31.2441 126.418 31.9499 126.199 32.6248C125.996 33.2517 125.671 33.8322 125.243 34.3325C124.809 34.831 124.267 35.2237 123.658 35.4803C123.026 35.7542 122.306 35.8912 121.499 35.8912C120.692 35.8913 119.972 35.7543 119.339 35.4803C118.732 35.225 118.192 34.8321 117.763 34.3325C117.338 33.8306 117.016 33.2505 116.814 32.6249C116.383 31.257 116.386 29.7895 116.821 28.4232V28.4231ZM123.293 34.7079C123.783 34.4807 124.213 34.1409 124.548 33.716C124.882 33.2861 125.128 32.795 125.273 32.2705C125.43 31.7055 125.508 31.1212 125.505 30.5346C125.505 29.1175 125.146 28.0028 124.428 27.1903C123.711 26.3779 122.729 25.9716 121.484 25.9716C120.816 25.9716 120.231 26.0944 119.728 26.34C119.239 26.5739 118.812 26.9184 118.48 27.3461C118.147 27.7799 117.898 28.2727 117.748 28.7986C117.429 29.9339 117.429 31.1352 117.748 32.2705C117.898 32.7965 118.147 33.2893 118.48 33.723C118.812 34.1507 119.243 34.4911 119.736 34.715C120.243 34.9512 120.836 35.0693 121.514 35.0693C122.191 35.0692 122.784 34.9488 123.293 34.7079ZM128.015 35.6219V25.4191H135.174V26.2409H129.031V29.9254H134.576V30.7473H129.031V34.8001H135.323V35.622H128.015V35.6219ZM137.042 32.5754C137.121 33.4447 137.435 34.0777 137.984 34.4743C138.532 34.8709 139.249 35.0693 140.136 35.0695C141.042 35.0695 141.725 34.8688 142.183 34.4672C142.642 34.0657 142.871 33.5627 142.871 32.958C142.871 32.6086 142.791 32.311 142.631 32.0653C142.469 31.8171 142.248 31.6127 141.989 31.4701C141.71 31.3151 141.414 31.1938 141.107 31.1088C140.788 31.0191 140.38 30.9175 139.882 30.8041C139.293 30.6719 138.815 30.5491 138.447 30.4356C138.08 30.3232 137.729 30.1662 137.401 29.968C137.071 29.769 136.798 29.4883 136.609 29.1532C136.409 28.8084 136.309 28.3856 136.31 27.8849C136.31 27.1292 136.631 26.4844 137.273 25.9506C137.916 25.4167 138.81 25.1498 139.956 25.1499C141.112 25.1499 142.004 25.438 142.631 26.0143C143.259 26.5905 143.573 27.318 143.573 28.1966H142.601C142.601 27.4597 142.347 26.9047 141.839 26.5315C141.331 26.1584 140.704 25.9718 139.956 25.9718C139.08 25.9718 138.417 26.1631 137.969 26.5457C137.52 26.9283 137.296 27.3888 137.296 27.9273C137.296 28.0272 137.306 28.1269 137.326 28.2249C137.366 28.4888 137.483 28.7351 137.662 28.9334C137.847 29.1306 138.068 29.2915 138.312 29.4081C138.575 29.5372 138.851 29.6393 139.135 29.7128C139.423 29.7885 139.797 29.8736 140.255 29.968C140.863 30.0908 141.351 30.2066 141.72 30.3151C142.092 30.4255 142.449 30.5826 142.781 30.7828C143.118 30.9841 143.396 31.2699 143.588 31.6118C143.787 31.9614 143.887 32.396 143.887 32.9155C143.887 33.8508 143.541 34.5806 142.848 35.1049C142.156 35.6293 141.192 35.8914 139.956 35.8914C138.79 35.8914 137.849 35.6056 137.131 35.0341C136.414 34.4625 136.056 33.643 136.056 32.5754H137.042ZM68.4626 50.3241V40.1209H72.139C72.8664 40.1209 73.4867 40.1705 74 40.2697C74.5229 40.373 75.0189 40.5828 75.4572 40.8859C75.7977 41.1148 76.0896 41.4085 76.3165 41.7503C76.5493 42.0976 76.7352 42.474 76.8696 42.8698C77.0017 43.2572 77.0991 43.6556 77.1608 44.0602C77.2192 44.44 77.2491 44.8237 77.2504 45.208C77.2535 45.9324 77.1504 46.6534 76.9442 47.3478C76.7581 47.9962 76.4169 48.5896 75.9501 49.0766C75.5135 49.5514 74.9514 49.8929 74.3288 50.0615C73.6958 50.2363 72.9659 50.3237 72.139 50.3239H68.4626V50.3241ZM69.4789 49.5019H71.9152C72.3751 49.5068 72.8348 49.4761 73.29 49.41C73.6907 49.3449 74.079 49.2182 74.441 49.0345C74.772 48.8705 75.0667 48.6416 75.3075 48.3615C75.5472 48.0818 75.7369 47.763 75.8683 47.4189C76.002 47.0714 76.0971 46.7102 76.1518 46.3419C76.2072 45.9666 76.2347 45.5877 76.2342 45.2083C76.2347 44.8195 76.2072 44.4311 76.1518 44.0463C76.0987 43.6745 76.0009 43.3105 75.8606 42.9622C75.7218 42.6186 75.5275 42.3003 75.2853 42.0198C75.0332 41.7303 74.7256 41.4942 74.3808 41.3255C74.092 41.1745 73.7409 41.0729 73.3275 41.0208C72.8588 40.9657 72.3871 40.9397 71.9152 40.9429H69.4789V49.5019ZM79.0888 50.3241V40.1209H80.105V50.3241H79.0888ZM86.9349 45.8743V45.0524H91.5379V50.3241H90.6709V48.581C90.2965 49.2097 89.7597 49.7259 89.117 50.0757C88.4792 50.4209 87.6571 50.5934 86.6509 50.5932C85.2361 50.5932 84.0978 50.1279 83.2359 49.1972C82.3738 48.2671 81.9428 46.9233 81.9429 45.1658C81.9355 44.4503 82.0389 43.7381 82.2496 43.0543C82.4409 42.4352 82.7562 41.8614 83.1762 41.368C83.6016 40.8774 84.1366 40.4938 84.7378 40.2485C85.3656 39.9841 86.0929 39.8518 86.92 39.8517C88.0854 39.8517 89.0692 40.1257 89.8713 40.6736C90.6735 41.2215 91.1892 42.0245 91.4185 43.0826H90.372C90.2193 42.361 89.7903 41.7277 89.1767 41.3184C88.549 40.8886 87.8216 40.6737 86.9946 40.6736C86.2971 40.6736 85.6942 40.7893 85.186 41.0208C84.6916 41.2417 84.2602 41.5827 83.931 42.0127C83.588 42.472 83.339 42.9945 83.1984 43.5503C83.032 44.2031 82.9518 44.8748 82.9596 45.5484C82.9565 46.0976 83.0448 46.6436 83.221 47.1639C83.3875 47.6605 83.6489 48.1201 83.9907 48.517C84.3318 48.9113 84.7553 49.2258 85.2313 49.4384C85.7439 49.6655 86.2996 49.7792 86.8603 49.7715C87.5079 49.7738 88.1473 49.6259 88.7281 49.3392C89.3158 49.0508 89.7743 48.5997 90.1034 47.9858C90.3922 47.4472 90.5466 46.7434 90.5665 45.8743H86.9349V45.8743ZM93.8245 50.3241V40.1209H94.8407V50.3241H93.8245ZM96.126 40.1209H103.958V40.9429H100.55V50.3241H99.5337V40.9429H96.126V40.1209V40.1209ZM103.898 50.3241L108.127 40.1209H109.278L113.403 50.3241H112.357L111.116 47.1213H106.214L104.944 50.3241H103.898V50.3241ZM106.558 46.2994H110.773L108.665 40.9429L106.558 46.2994ZM114.688 50.3241V40.1209H115.704V50.3241H114.688ZM118.38 47.2772C118.459 48.1463 118.773 48.7792 119.321 49.176C119.869 49.5728 120.587 49.7713 121.473 49.7715C122.38 49.7715 123.062 49.5706 123.521 49.1688C123.741 48.9846 123.917 48.7534 124.036 48.4923C124.155 48.2312 124.214 47.9467 124.208 47.6598C124.208 47.3104 124.128 47.0128 123.969 46.767C123.807 46.5189 123.586 46.3145 123.326 46.1719C123.048 46.017 122.752 45.8957 122.445 45.8105C122.126 45.7208 121.717 45.6193 121.219 45.5059C120.631 45.3737 120.153 45.2509 119.784 45.1374C119.418 45.025 119.066 44.8679 118.738 44.6698C118.409 44.4708 118.136 44.1901 117.946 43.855C117.747 43.5102 117.647 43.0874 117.647 42.5866C117.647 41.831 117.969 41.1862 118.611 40.6523C119.254 40.1185 120.148 39.8516 121.294 39.8517C122.45 39.8517 123.341 40.1398 123.969 40.7161C124.596 41.2924 124.91 42.0198 124.911 42.8984H123.939C123.939 42.1615 123.685 41.6065 123.177 41.2333C122.669 40.8602 122.041 40.6736 121.294 40.6736C120.417 40.6736 119.754 40.8649 119.306 41.2475C118.858 41.6301 118.633 42.0907 118.634 42.6291C118.634 42.729 118.644 42.8287 118.664 42.9267C118.704 43.1906 118.821 43.437 119 43.6352C119.185 43.8325 119.406 43.9935 119.65 44.1099C119.913 44.239 120.188 44.3411 120.472 44.4147C120.761 44.4904 121.135 44.5754 121.593 44.6698C122.2 44.7926 122.688 44.9084 123.057 45.017C123.429 45.1272 123.786 45.2843 124.119 45.4846C124.455 45.6859 124.733 45.9717 124.925 46.3136C125.125 46.6632 125.224 47.0978 125.224 47.6173C125.224 48.5526 124.878 49.2824 124.186 49.8066C123.493 50.3309 122.529 50.5931 121.294 50.5932C120.128 50.5932 119.186 50.3074 118.469 49.7359C117.752 49.1643 117.393 48.3447 117.393 47.2772H118.38V47.2772Z" fill="#444444"/>
</svg>
