<svg width="1403" height="585" viewBox="0 0 1403 585" fill="none" xmlns="http://www.w3.org/2000/svg">
<path d="M611.783 435L584.418 388.269V140.3H634.096V388.69H777.236V435H611.783ZM825.569 435L942.186 140.3H993.969L1112.69 435H1060.91L1036.07 371.85H901.77L877.352 435H825.569ZM1159 435L1136.27 377.323V140.3H1274.35C1301.86 140.3 1323.75 147.597 1340.03 162.192C1356.31 176.506 1364.45 194.89 1364.45 217.343C1364.45 232.218 1360.8 245.55 1353.5 257.338C1346.49 269.126 1336.94 278.107 1324.87 284.282C1341.43 290.457 1354.06 299.859 1362.76 312.489C1371.47 324.838 1375.82 339.152 1375.82 355.431C1375.82 379.007 1367.4 398.233 1350.56 413.108C1334 427.703 1311.26 435 1282.35 435H1159ZM1184.68 266.6H1271.83C1285.3 266.6 1296.11 262.811 1304.25 255.233C1312.39 247.374 1316.45 237.411 1316.45 225.342C1316.45 213.835 1312.39 204.292 1304.25 196.714C1296.39 189.136 1285.86 185.347 1272.67 185.347H1184.68V266.6ZM917.347 328.066H1019.23L967.867 198.819L917.347 328.066ZM1184.68 389.953H1278.99C1293.02 389.953 1304.11 386.164 1312.24 378.586C1320.66 371.008 1324.87 360.904 1324.87 348.274C1324.87 335.644 1320.52 325.68 1311.82 318.383C1303.12 311.086 1291.9 307.437 1278.14 307.437H1184.68V389.953Z" fill="#0065CA"/>
<path d="M0 136.894L260.5 0L521 133.376V451.288L260.5 584.562L0 449.102V136.894Z" fill="#0065CA"/>
<g clip-path="url(#clip0_4527_68)">
<path d="M261.097 54.6056L259.977 54.0584L258.866 54.6237L123.744 123.373L119.481 125.543L123.696 127.804L258.818 200.321L259.961 200.934L261.121 200.352L403.777 128.778L408.29 126.514L403.753 124.297L261.097 54.6056ZM260.015 246.871L37.9968 131.508L260.015 14.8162L488.011 131.508L260.015 246.871Z" fill="white" stroke="white" stroke-width="5"/>
<path d="M13.8835 442.006C13.3475 441.727 12.8845 441.486 12.5 441.285V157.523L92.8845 199.393L92.8858 199.394C119.286 213.127 139.07 241.02 140.743 290.731C141.575 315.511 135.663 328.368 129.974 334.995C127.116 338.323 124.246 340.164 122.142 341.17C121.087 341.674 120.221 341.97 119.641 342.137C119.351 342.22 119.133 342.271 119 342.299C118.934 342.313 118.889 342.322 118.866 342.326C118.861 342.326 118.857 342.327 118.855 342.328C118.852 342.328 118.851 342.328 118.85 342.328L118.85 342.328L113.356 343.13L117.62 346.712L117.621 346.712L117.621 346.713L117.622 346.714L117.633 346.723C117.645 346.733 117.665 346.75 117.693 346.775C117.749 346.823 117.837 346.9 117.955 347.005C118.19 347.216 118.543 347.539 118.999 347.974C119.91 348.846 121.226 350.166 122.814 351.932C125.991 355.466 130.247 360.776 134.509 367.837C143.027 381.949 151.568 403.05 151.568 430.97C151.568 461.429 145.653 478.846 136.926 486.987C128.509 494.838 116.627 494.704 102.458 487.596C87.9019 480.295 65.0807 468.544 45.8885 458.614C36.2945 453.65 27.611 449.143 21.3259 445.876C18.1834 444.243 15.6406 442.92 13.8835 442.006ZM45.9667 284.524V285.918L47.1518 286.65L48.4667 284.524C47.1518 286.65 47.1519 286.65 47.1521 286.651L47.153 286.651L47.1561 286.653L47.1684 286.661L47.2163 286.69L47.403 286.805C47.5668 286.907 47.8077 287.055 48.1171 287.245C48.7359 287.626 49.6287 288.174 50.7257 288.844C52.9194 290.184 55.9318 292.014 59.2052 293.971C65.7142 297.864 73.3744 302.336 77.637 304.428C79.8153 305.497 82.3221 306.495 84.8689 306.87C87.4416 307.25 90.2278 307.016 92.721 305.401C95.207 303.79 97.0261 301.049 98.1663 297.175C99.3019 293.317 99.8219 288.156 99.5981 281.382C99.1441 267.637 95.1438 259.011 90.7398 253.605C86.9005 248.891 82.8148 246.751 81.2202 245.915C80.9985 245.799 80.8249 245.708 80.7069 245.639C79.5537 244.964 71.7987 240.485 64.3468 236.182C60.6176 234.029 56.96 231.918 54.2346 230.345L50.9534 228.451L50.039 227.924L49.7986 227.785L49.737 227.749L49.7214 227.74L49.7175 227.738L49.7165 227.738C49.7163 227.737 49.7162 227.737 48.4667 229.903H45.9667V284.524ZM45.9667 407.898V409.334L47.2068 410.058L48.4667 407.898C47.2068 410.058 47.207 410.058 47.2072 410.058L47.2082 410.058L47.2119 410.061L47.2267 410.069L47.285 410.103L47.5126 410.236C47.7123 410.352 48.006 410.523 48.3826 410.742C49.1359 411.18 50.2209 411.81 51.5488 412.579C54.2042 414.116 57.8321 416.209 61.7205 418.429C69.4624 422.85 78.3425 427.839 82.5804 429.919C84.6913 430.955 87.2244 432.1 89.8478 432.767C92.4627 433.433 95.4026 433.686 98.2099 432.678C104.107 430.559 107.564 423.742 108.073 410.823C109.125 384.068 93.6791 371.577 87.6505 368.475C85.0336 367.129 75.5851 361.808 66.7134 356.778C62.2948 354.273 58.043 351.854 54.8956 350.061C53.322 349.164 52.0246 348.425 51.1207 347.909L50.0746 347.312L49.8004 347.155L49.7303 347.115L49.7126 347.105L49.7081 347.103L49.707 347.102C49.7068 347.102 49.7067 347.102 48.4672 349.272H48.4667H45.9667V349.273V350.724V407.898Z" fill="white" stroke="white" stroke-width="5"/>
<path d="M340.598 244.76V528.316L307.227 545.096V331.982L302.246 331.68L274.158 562.111L259.311 569.66L245.844 562.602L217.285 331.676L212.304 331.982V545.051L178.933 527.859V244.108L237.388 274.562L256.809 451.256L261.777 451.275L282.599 274.115L340.598 244.76Z" fill="white" stroke="white" stroke-width="5"/>
<path d="M377.378 509.559V280.287C377.378 261.347 380.583 246.319 386.937 234.38C393.272 222.476 402.832 213.466 415.86 206.692L415.86 206.692C427.629 200.572 451.438 188.518 472.319 177.986C482.756 172.722 492.457 167.841 499.548 164.276C502.813 162.634 505.524 161.272 507.5 160.28V443.566L474.148 460.559V405.309V401.086L470.445 403.117L416.8 432.547L415.502 433.259V434.739V490.41L377.378 509.559ZM415.502 380.352V384.51L419.175 382.559L472.82 354.071L474.148 353.366V351.863V229.196H471.648C470.592 226.93 470.592 226.93 470.592 226.93L470.591 226.931L470.588 226.932L470.577 226.937L470.534 226.957L470.366 227.036C470.219 227.105 470.002 227.207 469.721 227.339C469.161 227.602 468.347 227.987 467.331 228.47C465.3 229.437 462.462 230.801 459.23 232.39C452.778 235.561 444.713 239.651 438.374 243.271C431.51 247.193 425.819 254.508 421.861 262.606C417.888 270.733 415.502 279.97 415.502 288.057V380.352Z" fill="white" stroke="white" stroke-width="5"/>
<g clip-path="url(#clip1_4527_68)">
<path d="M272.146 103.227L255.746 160.628C255.118 162.806 252.851 164.062 250.673 163.447C248.494 162.819 247.239 160.551 247.854 158.373L264.254 100.975C264.882 98.7972 267.149 97.5364 269.328 98.1586C271.506 98.7807 272.761 101.05 272.146 103.227ZM285.446 113.555L299.796 127.905C301.397 129.507 301.397 132.095 299.796 133.696L285.446 148.046C283.844 149.648 281.256 149.648 279.654 148.046C278.053 146.445 278.053 143.857 279.654 142.255L291.096 130.801L279.654 119.346C278.053 117.745 278.053 115.157 279.654 113.555C281.256 111.954 283.844 111.954 285.446 113.555ZM240.346 119.346L228.898 130.801L240.346 142.255C241.947 143.857 241.947 146.445 240.346 148.046C238.744 149.648 236.156 149.648 234.554 148.046L220.201 133.696C218.6 132.095 218.6 129.507 220.201 127.905L234.554 113.555C236.156 111.954 238.744 111.954 240.346 113.555C241.947 115.157 241.947 117.745 240.346 119.346Z" fill="white"/>
</g>
</g>
<defs>
<clipPath id="clip0_4527_68">
<rect width="500" height="560.473" fill="white" transform="translate(10 12)"/>
</clipPath>
<clipPath id="clip1_4527_68">
<rect width="82" height="65.6" fill="white" transform="translate(219 98)"/>
</clipPath>
</defs>
</svg>
